<?xml version="1.0" encoding="UTF-8"?>
<svg id="Layer_1" xmlns="http://www.w3.org/2000/svg" xmlns:xlink="http://www.w3.org/1999/xlink" version="1.1" viewBox="0 0 511 127.3">
  <!-- Generator: Adobe Illustrator 29.2.1, SVG Export Plug-In . SVG Version: 2.1.0 Build 116)  -->
  <path d="M8.3,56.6V10h21.2c5.1,0,9.5,1,13.4,2.9s6.9,4.6,9.1,8.1c2.2,3.5,3.3,7.6,3.3,12.3s-1.1,8.8-3.3,12.3-5.2,6.2-9.1,8.1c-3.9,1.9-8.3,2.9-13.4,2.9H8.3ZM19.2,47.8h9.8c3.1,0,5.8-.6,8.1-1.8s4.1-2.9,5.3-5.1c1.3-2.2,1.9-4.8,1.9-7.7s-.6-5.6-1.9-7.7c-1.3-2.2-3-3.9-5.3-5-2.3-1.2-5-1.8-8.1-1.8h-9.8v29h0Z"/>
  <path d="M82.2,56.6V10h10.9v46.6h-10.9Z"/>
  <path d="M116.7,56.6l20.7-46.6h10.7l20.9,46.6h-11.3l-17.1-41.2h4.3l-17.1,41.2h-11.1,0ZM127.2,46.6l2.7-8.2h24.1l2.8,8.2h-29.6Z"/>
  <path d="M192.8,56.6V10h20.2c4.2,0,7.8.7,10.8,2,3,1.4,5.4,3.3,7,5.8,1.6,2.5,2.5,5.5,2.5,9s-.8,6.5-2.5,9c-1.6,2.5-4,4.4-7,5.7s-6.6,2-10.8,2h-14.3l4.9-4.7v17.7h-10.9.1ZM203.6,40.1l-4.9-5.1h13.7c3.3,0,5.8-.7,7.5-2.1,1.7-1.4,2.5-3.4,2.5-6s-.8-4.6-2.5-6-4.2-2.1-7.5-2.1h-13.7l4.9-5.1v26.4ZM222.5,56.6l-11.7-16.9h11.6l11.7,16.9h-11.6Z"/>
  <path d="M260.6,56.6V10h8.9l19.9,32.9h-4.7l19.5-32.9h9v46.6h-10.1v-31.1c-.1,0,1.9,0,1.9,0l-15.7,26.1h-4.8l-15.9-26.1h2.2v31.1h-10.2Z"/>
  <path d="M363.8,57.4c-6.6,0-11.8-1.8-15.5-5.5s-5.6-9-5.6-15.9V10h10.9v25.8c0,4.4.9,7.6,2.7,9.6,1.8,2,4.4,3,7.6,3s5.8-1,7.7-3c1.8-2,2.7-5.2,2.7-9.6V10h10.6v26c0,6.9-1.9,12.2-5.6,15.9s-8.9,5.5-15.5,5.5h0Z"/>
  <path d="M414.4,56.6V10h10.9v46.6h-10.9Z"/>
  <path d="M455.1,56.6V10h21.2c5.1,0,9.5,1,13.4,2.9s6.9,4.6,9.1,8.1,3.3,7.6,3.3,12.3-1.1,8.8-3.3,12.3c-2.2,3.5-5.2,6.2-9.1,8.1-3.9,1.9-8.3,2.9-13.4,2.9h-21.2ZM465.9,47.8h9.8c3.1,0,5.8-.6,8.1-1.8,2.3-1.2,4.1-2.9,5.3-5.1,1.3-2.2,1.9-4.8,1.9-7.7s-.6-5.6-1.9-7.7-3-3.9-5.3-5c-2.3-1.2-5-1.8-8.1-1.8h-9.8v29h0Z"/>
  <path d="M23.6,117.3l-15.3-46.6h11.2l13.3,41.3h-5.6l13.9-41.3h10l13.3,41.3h-5.4l13.6-41.3h10.3l-15.3,46.6h-11.5l-11.9-36.2h3.1l-12.1,36.2h-11.6Z"/>
  <path d="M131.3,118.1c-3.7,0-7.1-.6-10.2-1.8-3.1-1.2-5.8-2.9-8.1-5.1-2.3-2.2-4.1-4.7-5.4-7.7-1.3-2.9-1.9-6.1-1.9-9.6s.6-6.7,1.9-9.6c1.3-2.9,3.1-5.5,5.4-7.6,2.3-2.2,5-3.9,8.1-5.1,3.1-1.2,6.5-1.8,10.2-1.8s7.1.6,10.2,1.8c3.1,1.2,5.8,2.9,8.1,5,2.3,2.2,4.1,4.7,5.4,7.7,1.3,2.9,1.9,6.2,1.9,9.7s-.6,6.7-1.9,9.6c-1.3,3-3.1,5.5-5.4,7.7-2.3,2.2-5,3.9-8.1,5-3.1,1.2-6.5,1.8-10.1,1.8h-.1ZM131.2,109c2.1,0,4-.4,5.8-1.1,1.8-.7,3.3-1.8,4.6-3.1,1.3-1.4,2.4-2.9,3.1-4.7.7-1.8,1.1-3.8,1.1-6s-.4-4.2-1.1-6c-.7-1.8-1.8-3.4-3.1-4.7-1.3-1.4-2.9-2.4-4.6-3.1-1.8-.7-3.7-1.1-5.8-1.1s-4,.4-5.8,1.1-3.3,1.8-4.6,3.1c-1.3,1.4-2.3,2.9-3.1,4.7-.7,1.8-1.1,3.8-1.1,6s.4,4.2,1.1,6c.7,1.8,1.8,3.4,3.1,4.7,1.3,1.4,2.9,2.4,4.6,3.1,1.8.7,3.7,1.1,5.8,1.1Z"/>
  <path d="M183.7,117.3v-46.6h10.9v37.8h23.2v8.8h-34.1Z"/>
  <path d="M253.7,117.3h-10.9v-46.6h35.2v8.7h-24.4v38h.1ZM252.8,91.7h22.4v8.7h-22.4v-8.7Z"/>
  <path d="M315,108.6h25.4v8.7h-36.1v-46.6h35.2v8.7h-24.5v29.3h0ZM314.2,89.4h22.5v8.5h-22.5v-8.5Z"/>
</svg>